<svg width="211" height="41" viewBox="0 0 211 41" fill="none" xmlns="http://www.w3.org/2000/svg">
<path d="M4.53835 16L0.37642 1.45455H3.7358L6.14347 11.5611H6.2642L8.92045 1.45455H11.7969L14.446 11.5824H14.5739L16.9815 1.45455H20.3409L16.179 16H13.1818L10.4119 6.49006H10.2983L7.53551 16H4.53835ZM21.93 16V5.09091H24.9556V16H21.93ZM23.4499 3.68466C23.0001 3.68466 22.6142 3.53551 22.2923 3.23722C21.975 2.93419 21.8164 2.57197 21.8164 2.15057C21.8164 1.7339 21.975 1.37642 22.2923 1.07812C22.6142 0.775094 23.0001 0.623579 23.4499 0.623579C23.8997 0.623579 24.2833 0.775094 24.6005 1.07812C24.9225 1.37642 25.0835 1.7339 25.0835 2.15057C25.0835 2.57197 24.9225 2.93419 24.6005 3.23722C24.2833 3.53551 23.8997 3.68466 23.4499 3.68466ZM30.4048 1.45455V16H27.3793V1.45455H30.4048ZM36.8484 16.1776C36.0198 16.1776 35.2693 15.9645 34.5969 15.5384C33.9293 15.1075 33.399 14.4754 33.006 13.642C32.6178 12.804 32.4237 11.7765 32.4237 10.5597C32.4237 9.30966 32.6249 8.27036 33.0273 7.44176C33.4298 6.60843 33.9648 5.9858 34.6325 5.57386C35.3048 5.1572 36.0411 4.94886 36.8413 4.94886C37.4521 4.94886 37.9611 5.05303 38.3683 5.26136C38.7802 5.46496 39.1116 5.72064 39.3626 6.02841C39.6183 6.33144 39.8124 6.62973 39.945 6.9233H40.0373V1.45455H43.0558V16H40.0728V14.2528H39.945C39.8029 14.5559 39.6017 14.8565 39.3413 15.1548C39.0856 15.4484 38.7518 15.6922 38.3398 15.8864C37.9326 16.0805 37.4355 16.1776 36.8484 16.1776ZM37.8072 13.7699C38.2949 13.7699 38.7068 13.6373 39.043 13.3722C39.3839 13.1023 39.6443 12.7259 39.8242 12.2429C40.0089 11.7599 40.1012 11.1941 40.1012 10.5455C40.1012 9.89678 40.0112 9.33333 39.8313 8.85511C39.6514 8.37689 39.391 8.00758 39.0501 7.74716C38.7092 7.48674 38.2949 7.35653 37.8072 7.35653C37.31 7.35653 36.891 7.49148 36.5501 7.76136C36.2092 8.03125 35.9511 8.4053 35.7759 8.88352C35.6007 9.36174 35.5131 9.91572 35.5131 10.5455C35.5131 11.1799 35.6007 11.741 35.7759 12.2287C35.9558 12.7116 36.2139 13.0904 36.5501 13.3651C36.891 13.6349 37.31 13.7699 37.8072 13.7699ZM50.4723 16.2131C49.3549 16.2131 48.3937 15.9763 47.5888 15.5028C46.7886 15.0246 46.1731 14.3617 45.7422 13.5142C45.3161 12.6667 45.103 11.6913 45.103 10.5881C45.103 9.47064 45.3184 8.49053 45.7493 7.64773C46.1849 6.80019 46.8028 6.13968 47.603 5.66619C48.4032 5.18797 49.3549 4.94886 50.4581 4.94886C51.4098 4.94886 52.2431 5.12169 52.9581 5.46733C53.6731 5.81297 54.2389 6.2983 54.6555 6.9233C55.0722 7.5483 55.3018 8.2822 55.3445 9.125H52.4893C52.4089 8.58049 52.1958 8.14252 51.8501 7.81108C51.5092 7.47491 51.0618 7.30682 50.5078 7.30682C50.0391 7.30682 49.6295 7.43466 49.2791 7.69034C48.9335 7.94129 48.6636 8.30824 48.4695 8.79119C48.2753 9.27415 48.1783 9.8589 48.1783 10.5455C48.1783 11.2415 48.273 11.8333 48.4624 12.321C48.6565 12.8087 48.9287 13.1804 49.2791 13.4361C49.6295 13.6918 50.0391 13.8196 50.5078 13.8196C50.8535 13.8196 51.1636 13.7486 51.4382 13.6065C51.7176 13.4645 51.9472 13.2585 52.1271 12.9886C52.3118 12.714 52.4325 12.3849 52.4893 12.0014H55.3445C55.2971 12.8348 55.0698 13.5687 54.6626 14.2031C54.2602 14.8329 53.7038 15.3253 52.9936 15.6804C52.2834 16.0355 51.4429 16.2131 50.4723 16.2131ZM60.3924 16.206C59.6964 16.206 59.0761 16.0852 58.5316 15.8438C57.9871 15.5975 57.5562 15.2353 57.239 14.7571C56.9265 14.2741 56.7702 13.6728 56.7702 12.9531C56.7702 12.3471 56.8815 11.8381 57.104 11.4261C57.3266 11.0142 57.6296 10.6828 58.0131 10.4318C58.3967 10.1809 58.8323 9.99148 59.32 9.86364C59.8124 9.7358 60.3285 9.64583 60.8683 9.59375C61.5027 9.52746 62.0141 9.46591 62.4023 9.40909C62.7906 9.34754 63.0723 9.25758 63.2475 9.1392C63.4227 9.02083 63.5103 8.84564 63.5103 8.61364V8.57102C63.5103 8.12121 63.3683 7.7732 63.0842 7.52699C62.8048 7.28078 62.4071 7.15767 61.891 7.15767C61.3465 7.15767 60.9132 7.27841 60.5913 7.51989C60.2693 7.75663 60.0562 8.05492 59.9521 8.41477L57.1538 8.1875C57.2958 7.52462 57.5752 6.9517 57.9918 6.46875C58.4085 5.98106 58.9459 5.60701 59.604 5.34659C60.2669 5.08144 61.034 4.94886 61.9052 4.94886C62.5112 4.94886 63.0913 5.01989 63.6452 5.16193C64.204 5.30398 64.6987 5.52415 65.1296 5.82244C65.5652 6.12074 65.9085 6.50426 66.1594 6.97301C66.4104 7.43703 66.5359 7.99337 66.5359 8.64205V16H63.6665V14.4872H63.5813C63.4061 14.8281 63.1718 15.1288 62.8782 15.3892C62.5846 15.6449 62.2319 15.8461 61.82 15.9929C61.408 16.1349 60.9322 16.206 60.3924 16.206ZM61.2589 14.1179C61.704 14.1179 62.0969 14.0303 62.4379 13.8551C62.7788 13.6752 63.0463 13.4337 63.2404 13.1307C63.4345 12.8277 63.5316 12.4844 63.5316 12.1009V10.9432C63.4369 11.0047 63.3067 11.0616 63.141 11.1136C62.98 11.161 62.7977 11.206 62.5941 11.2486C62.3905 11.2865 62.1869 11.322 61.9833 11.3551C61.7797 11.3835 61.5951 11.4096 61.4293 11.4332C61.0742 11.4853 60.7641 11.5682 60.4989 11.6818C60.2338 11.7955 60.0278 11.9493 59.881 12.1435C59.7343 12.3329 59.6609 12.5696 59.6609 12.8537C59.6609 13.2656 59.81 13.5805 60.1083 13.7983C60.4113 14.0114 60.7949 14.1179 61.2589 14.1179ZM74.6857 5.09091V7.36364H68.1161V5.09091H74.6857ZM69.6076 2.47727H72.6332V12.6477C72.6332 12.9271 72.6758 13.1449 72.761 13.3011C72.8462 13.4527 72.9646 13.5592 73.1161 13.6207C73.2724 13.6823 73.4523 13.7131 73.6559 13.7131C73.7979 13.7131 73.94 13.7012 74.082 13.6776C74.2241 13.6491 74.333 13.6278 74.4087 13.6136L74.8846 15.8651C74.7331 15.9124 74.52 15.9669 74.2454 16.0284C73.9708 16.0947 73.637 16.1349 73.244 16.1491C72.5148 16.1776 71.8756 16.0805 71.3263 15.858C70.7818 15.6354 70.3581 15.2898 70.055 14.821C69.752 14.3523 69.6029 13.7604 69.6076 13.0455V2.47727ZM81.3423 16V1.45455H90.973V3.99006H84.4176V7.45597H90.3338V9.99148H84.4176V16H81.3423ZM97.1129 16.2131C96.0097 16.2131 95.0556 15.9787 94.2507 15.5099C93.4505 15.0365 92.8326 14.3783 92.397 13.5355C91.9614 12.688 91.7436 11.7055 91.7436 10.5881C91.7436 9.46117 91.9614 8.47633 92.397 7.63352C92.8326 6.78598 93.4505 6.12784 94.2507 5.65909C95.0556 5.18561 96.0097 4.94886 97.1129 4.94886C98.2161 4.94886 99.1679 5.18561 99.968 5.65909C100.773 6.12784 101.393 6.78598 101.829 7.63352C102.264 8.47633 102.482 9.46117 102.482 10.5881C102.482 11.7055 102.264 12.688 101.829 13.5355C101.393 14.3783 100.773 15.0365 99.968 15.5099C99.1679 15.9787 98.2161 16.2131 97.1129 16.2131ZM97.1271 13.8693C97.629 13.8693 98.0481 13.7273 98.3842 13.4432C98.7204 13.1544 98.9737 12.7614 99.1442 12.2642C99.3194 11.767 99.407 11.2012 99.407 10.5668C99.407 9.93229 99.3194 9.36648 99.1442 8.86932C98.9737 8.37216 98.7204 7.97917 98.3842 7.69034C98.0481 7.40151 97.629 7.2571 97.1271 7.2571C96.6205 7.2571 96.1944 7.40151 95.8487 7.69034C95.5078 7.97917 95.2498 8.37216 95.0746 8.86932C94.9041 9.36648 94.8189 9.93229 94.8189 10.5668C94.8189 11.2012 94.9041 11.767 95.0746 12.2642C95.2498 12.7614 95.5078 13.1544 95.8487 13.4432C96.1944 13.7273 96.6205 13.8693 97.1271 13.8693ZM109.379 16.2131C108.275 16.2131 107.321 15.9787 106.516 15.5099C105.716 15.0365 105.098 14.3783 104.663 13.5355C104.227 12.688 104.009 11.7055 104.009 10.5881C104.009 9.46117 104.227 8.47633 104.663 7.63352C105.098 6.78598 105.716 6.12784 106.516 5.65909C107.321 5.18561 108.275 4.94886 109.379 4.94886C110.482 4.94886 111.433 5.18561 112.234 5.65909C113.039 6.12784 113.659 6.78598 114.094 7.63352C114.53 8.47633 114.748 9.46117 114.748 10.5881C114.748 11.7055 114.53 12.688 114.094 13.5355C113.659 14.3783 113.039 15.0365 112.234 15.5099C111.433 15.9787 110.482 16.2131 109.379 16.2131ZM109.393 13.8693C109.895 13.8693 110.314 13.7273 110.65 13.4432C110.986 13.1544 111.239 12.7614 111.41 12.2642C111.585 11.767 111.673 11.2012 111.673 10.5668C111.673 9.93229 111.585 9.36648 111.41 8.86932C111.239 8.37216 110.986 7.97917 110.65 7.69034C110.314 7.40151 109.895 7.2571 109.393 7.2571C108.886 7.2571 108.46 7.40151 108.114 7.69034C107.773 7.97917 107.515 8.37216 107.34 8.86932C107.17 9.36648 107.085 9.93229 107.085 10.5668C107.085 11.2012 107.17 11.767 107.34 12.2642C107.515 12.7614 107.773 13.1544 108.114 13.4432C108.46 13.7273 108.886 13.8693 109.393 13.8693ZM120.735 16.1776C119.906 16.1776 119.156 15.9645 118.484 15.5384C117.816 15.1075 117.286 14.4754 116.893 13.642C116.504 12.804 116.31 11.7765 116.31 10.5597C116.31 9.30966 116.512 8.27036 116.914 7.44176C117.317 6.60843 117.852 5.9858 118.519 5.57386C119.192 5.1572 119.928 4.94886 120.728 4.94886C121.339 4.94886 121.848 5.05303 122.255 5.26136C122.667 5.46496 122.998 5.72064 123.249 6.02841C123.505 6.33144 123.699 6.62973 123.832 6.9233H123.924V1.45455H126.942V16H123.96V14.2528H123.832C123.69 14.5559 123.488 14.8565 123.228 15.1548C122.972 15.4484 122.638 15.6922 122.227 15.8864C121.819 16.0805 121.322 16.1776 120.735 16.1776ZM121.694 13.7699C122.182 13.7699 122.594 13.6373 122.93 13.3722C123.271 13.1023 123.531 12.7259 123.711 12.2429C123.896 11.7599 123.988 11.1941 123.988 10.5455C123.988 9.89678 123.898 9.33333 123.718 8.85511C123.538 8.37689 123.278 8.00758 122.937 7.74716C122.596 7.48674 122.182 7.35653 121.694 7.35653C121.197 7.35653 120.778 7.49148 120.437 7.76136C120.096 8.03125 119.838 8.4053 119.663 8.88352C119.487 9.36174 119.4 9.91572 119.4 10.5455C119.4 11.1799 119.487 11.741 119.663 12.2287C119.843 12.7116 120.101 13.0904 120.437 13.3651C120.778 13.6349 121.197 13.7699 121.694 13.7699ZM134.116 16V1.45455H143.917V3.99006H137.191V7.45597H143.413V9.99148H137.191V13.4645H143.945V16H134.116ZM148.833 5.09091L150.836 8.90483L152.889 5.09091H155.993L152.832 10.5455L156.078 16H152.988L150.836 12.2287L148.72 16H145.595L148.833 10.5455L145.708 5.09091H148.833ZM157.789 20.0909V5.09091H160.772V6.9233H160.907C161.04 6.62973 161.232 6.33144 161.483 6.02841C161.738 5.72064 162.07 5.46496 162.477 5.26136C162.889 5.05303 163.4 4.94886 164.011 4.94886C164.806 4.94886 165.54 5.1572 166.213 5.57386C166.885 5.9858 167.422 6.60843 167.825 7.44176C168.227 8.27036 168.429 9.30966 168.429 10.5597C168.429 11.7765 168.232 12.804 167.839 13.642C167.451 14.4754 166.921 15.1075 166.248 15.5384C165.581 15.9645 164.833 16.1776 164.004 16.1776C163.417 16.1776 162.917 16.0805 162.505 15.8864C162.098 15.6922 161.764 15.4484 161.504 15.1548C161.243 14.8565 161.045 14.5559 160.907 14.2528H160.815V20.0909H157.789ZM160.751 10.5455C160.751 11.1941 160.841 11.7599 161.021 12.2429C161.201 12.7259 161.461 13.1023 161.802 13.3722C162.143 13.6373 162.557 13.7699 163.045 13.7699C163.538 13.7699 163.954 13.6349 164.295 13.3651C164.636 13.0904 164.894 12.7116 165.069 12.2287C165.249 11.741 165.339 11.1799 165.339 10.5455C165.339 9.91572 165.252 9.36174 165.076 8.88352C164.901 8.4053 164.643 8.03125 164.302 7.76136C163.961 7.49148 163.542 7.35653 163.045 7.35653C162.553 7.35653 162.136 7.48674 161.795 7.74716C161.459 8.00758 161.201 8.37689 161.021 8.85511C160.841 9.33333 160.751 9.89678 160.751 10.5455ZM170.446 16V5.09091H173.379V6.99432H173.493C173.691 6.31723 174.025 5.80587 174.494 5.46023C174.963 5.10985 175.502 4.93466 176.113 4.93466C176.265 4.93466 176.428 4.94413 176.603 4.96307C176.779 4.98201 176.932 5.00805 177.065 5.04119V7.72585C176.923 7.68324 176.726 7.64536 176.475 7.61222C176.225 7.57907 175.995 7.5625 175.787 7.5625C175.342 7.5625 174.944 7.65956 174.593 7.85369C174.248 8.04309 173.973 8.30824 173.77 8.64915C173.571 8.99006 173.471 9.38305 173.471 9.82812V16H170.446ZM183.093 16.2131C181.971 16.2131 181.005 15.9858 180.195 15.5312C179.39 15.072 178.77 14.4233 178.335 13.5852C177.899 12.7424 177.681 11.7457 177.681 10.5952C177.681 9.47301 177.899 8.48816 178.335 7.64062C178.77 6.79309 179.383 6.13258 180.174 5.65909C180.969 5.18561 181.902 4.94886 182.972 4.94886C183.692 4.94886 184.362 5.06487 184.982 5.29688C185.607 5.52415 186.152 5.86742 186.616 6.3267C187.085 6.78598 187.449 7.36364 187.71 8.05966C187.97 8.75095 188.1 9.56061 188.1 10.4886V11.3196H178.888V9.4446H185.252C185.252 9.009 185.157 8.62311 184.968 8.28693C184.779 7.95076 184.516 7.68797 184.18 7.49858C183.848 7.30445 183.462 7.20739 183.022 7.20739C182.563 7.20739 182.156 7.31392 181.8 7.52699C181.45 7.73532 181.175 8.01705 180.977 8.37216C180.778 8.72254 180.676 9.11316 180.671 9.54403V11.3267C180.671 11.8665 180.771 12.3329 180.969 12.7259C181.173 13.1188 181.46 13.4219 181.829 13.6349C182.198 13.848 182.636 13.9545 183.143 13.9545C183.479 13.9545 183.787 13.9072 184.066 13.8125C184.345 13.7178 184.585 13.5758 184.783 13.3864C184.982 13.197 185.134 12.965 185.238 12.6903L188.036 12.875C187.894 13.5473 187.603 14.1345 187.163 14.6364C186.727 15.1335 186.164 15.5218 185.472 15.8011C184.786 16.0758 183.993 16.2131 183.093 16.2131ZM199.151 8.2017L196.381 8.37216C196.334 8.13542 196.232 7.92235 196.076 7.73295C195.92 7.53883 195.714 7.38494 195.458 7.27131C195.207 7.15294 194.906 7.09375 194.556 7.09375C194.087 7.09375 193.692 7.19318 193.37 7.39205C193.048 7.58617 192.887 7.84659 192.887 8.1733C192.887 8.43371 192.991 8.65388 193.2 8.83381C193.408 9.01373 193.765 9.15814 194.272 9.26705L196.246 9.66477C197.307 9.88258 198.098 10.233 198.619 10.7159C199.139 11.1989 199.4 11.8333 199.4 12.6193C199.4 13.3343 199.189 13.9616 198.768 14.5014C198.351 15.0412 197.778 15.4626 197.049 15.7656C196.325 16.0639 195.489 16.2131 194.542 16.2131C193.098 16.2131 191.947 15.9124 191.09 15.3111C190.238 14.705 189.738 13.8812 189.592 12.8395L192.567 12.6832C192.657 13.1236 192.875 13.4598 193.221 13.6918C193.567 13.919 194.009 14.0327 194.549 14.0327C195.079 14.0327 195.505 13.9309 195.827 13.7273C196.154 13.5189 196.32 13.2514 196.325 12.9247C196.32 12.6501 196.204 12.4252 195.977 12.25C195.749 12.0701 195.399 11.9328 194.925 11.8381L193.036 11.4616C191.971 11.2486 191.178 10.8793 190.657 10.3537C190.141 9.82812 189.883 9.15814 189.883 8.34375C189.883 7.64299 190.072 7.0393 190.451 6.53267C190.835 6.02604 191.372 5.63542 192.063 5.3608C192.759 5.08617 193.574 4.94886 194.506 4.94886C195.884 4.94886 196.969 5.24006 197.759 5.82244C198.555 6.40483 199.019 7.19792 199.151 8.2017ZM210.382 8.2017L207.612 8.37216C207.565 8.13542 207.463 7.92235 207.306 7.73295C207.15 7.53883 206.944 7.38494 206.689 7.27131C206.438 7.15294 206.137 7.09375 205.787 7.09375C205.318 7.09375 204.922 7.19318 204.6 7.39205C204.279 7.58617 204.118 7.84659 204.118 8.1733C204.118 8.43371 204.222 8.65388 204.43 8.83381C204.638 9.01373 204.996 9.15814 205.502 9.26705L207.477 9.66477C208.538 9.88258 209.328 10.233 209.849 10.7159C210.37 11.1989 210.63 11.8333 210.63 12.6193C210.63 13.3343 210.42 13.9616 209.998 14.5014C209.582 15.0412 209.009 15.4626 208.279 15.7656C207.555 16.0639 206.719 16.2131 205.772 16.2131C204.328 16.2131 203.178 15.9124 202.321 15.3111C201.468 14.705 200.969 13.8812 200.822 12.8395L203.798 12.6832C203.888 13.1236 204.106 13.4598 204.451 13.6918C204.797 13.919 205.24 14.0327 205.779 14.0327C206.31 14.0327 206.736 13.9309 207.058 13.7273C207.385 13.5189 207.55 13.2514 207.555 12.9247C207.55 12.6501 207.434 12.4252 207.207 12.25C206.98 12.0701 206.629 11.9328 206.156 11.8381L204.267 11.4616C203.201 11.2486 202.408 10.8793 201.887 10.3537C201.371 9.82812 201.113 9.15814 201.113 8.34375C201.113 7.64299 201.303 7.0393 201.681 6.53267C202.065 6.02604 202.602 5.63542 203.294 5.3608C203.99 5.08617 204.804 4.94886 205.737 4.94886C207.115 4.94886 208.199 5.24006 208.99 5.82244C209.785 6.40483 210.249 7.19792 210.382 8.2017Z" fill="#9B1410"/>
<path d="M14.098 30.5469H10.9872C10.9304 30.1444 10.8144 29.7869 10.6392 29.4744C10.464 29.1572 10.2391 28.8873 9.96449 28.6648C9.68987 28.4422 9.37263 28.2718 9.01278 28.1534C8.65767 28.035 8.27178 27.9759 7.85511 27.9759C7.10227 27.9759 6.4465 28.1629 5.88778 28.5369C5.32907 28.9062 4.89583 29.446 4.58807 30.1562C4.2803 30.8617 4.12642 31.7187 4.12642 32.7273C4.12642 33.7642 4.2803 34.6354 4.58807 35.3409C4.90057 36.0464 5.33617 36.5791 5.89489 36.9389C6.4536 37.2988 7.09991 37.4787 7.83381 37.4787C8.24574 37.4787 8.62689 37.4242 8.97727 37.3153C9.33239 37.2064 9.64725 37.0478 9.92188 36.8395C10.1965 36.6264 10.4238 36.3684 10.6037 36.0653C10.7884 35.7623 10.9162 35.4167 10.9872 35.0284L14.098 35.0426C14.0175 35.7102 13.8163 36.3542 13.4943 36.9744C13.1771 37.59 12.7486 38.1416 12.2088 38.6293C11.6738 39.1122 11.0346 39.4957 10.2912 39.7798C9.55256 40.0592 8.71686 40.1989 7.78409 40.1989C6.48674 40.1989 5.3267 39.9053 4.30398 39.3182C3.28598 38.7311 2.48106 37.8812 1.8892 36.7685C1.30208 35.6558 1.00852 34.3087 1.00852 32.7273C1.00852 31.1411 1.30682 29.7917 1.90341 28.679C2.5 27.5663 3.30966 26.7187 4.33239 26.1364C5.35511 25.5492 6.50568 25.2557 7.78409 25.2557C8.62689 25.2557 9.40814 25.3741 10.1278 25.6108C10.8523 25.8475 11.4938 26.1932 12.0526 26.6477C12.6113 27.0975 13.0658 27.6491 13.4162 28.3026C13.7713 28.956 13.9986 29.7041 14.098 30.5469ZM19.3786 25.4545V40H16.3033V25.4545H19.3786ZM21.3548 27.9901V25.4545H33.3008V27.9901H28.8477V40H25.8079V27.9901H21.3548ZM41.4027 31.527V33.9276H34.7692V31.527H41.4027ZM53.022 25.4545H56.0973V34.9006C56.0973 35.9612 55.844 36.8892 55.3374 37.6847C54.8355 38.4801 54.1323 39.1004 53.228 39.5455C52.3236 39.9858 51.2701 40.206 50.0675 40.206C48.8601 40.206 47.8042 39.9858 46.8999 39.5455C45.9955 39.1004 45.2924 38.4801 44.7905 37.6847C44.2886 36.8892 44.0376 35.9612 44.0376 34.9006V25.4545H47.1129V34.6378C47.1129 35.1918 47.2337 35.6842 47.4751 36.1151C47.7214 36.5459 48.067 36.8845 48.5121 37.1307C48.9571 37.3769 49.4756 37.5 50.0675 37.5C50.6641 37.5 51.1825 37.3769 51.6229 37.1307C52.0679 36.8845 52.4112 36.5459 52.6527 36.1151C52.8989 35.6842 53.022 35.1918 53.022 34.6378V25.4545ZM70.7937 25.4545V40H68.1374L61.8093 30.8452H61.7028V40H58.6275V25.4545H61.3263L67.6048 34.6023H67.7326V25.4545H70.7937ZM76.4098 25.4545V40H73.3345V25.4545H76.4098ZM81.5678 25.4545L85.0835 36.5057H85.2184L88.7411 25.4545H92.1502L87.136 40H83.1729L78.1516 25.4545H81.5678ZM93.9009 40V25.4545H103.702V27.9901H96.9762V31.456H103.198V33.9915H96.9762V37.4645H103.73V40H93.9009ZM106.147 40V25.4545H111.886C112.984 25.4545 113.922 25.651 114.698 26.044C115.479 26.4323 116.074 26.9839 116.481 27.6989C116.893 28.4091 117.099 29.2448 117.099 30.206C117.099 31.1719 116.89 32.0028 116.474 32.6989C116.057 33.3902 115.453 33.9205 114.663 34.2898C113.877 34.6591 112.925 34.8438 111.808 34.8438H107.965V32.3722H111.31C111.897 32.3722 112.385 32.2917 112.773 32.1307C113.162 31.9697 113.451 31.7282 113.64 31.4062C113.834 31.0843 113.931 30.6842 113.931 30.206C113.931 29.723 113.834 29.3158 113.64 28.9844C113.451 28.6529 113.159 28.402 112.766 28.2315C112.378 28.0563 111.888 27.9688 111.296 27.9688H109.222V40H106.147ZM114.002 33.3807L117.617 40H114.222L110.685 33.3807H114.002ZM127.163 29.6378C127.106 29.0649 126.862 28.6198 126.431 28.3026C126 27.9853 125.415 27.8267 124.677 27.8267C124.175 27.8267 123.751 27.8977 123.406 28.0398C123.06 28.1771 122.795 28.3688 122.61 28.6151C122.43 28.8613 122.34 29.1406 122.34 29.4531C122.331 29.7135 122.385 29.9408 122.504 30.1349C122.627 30.3291 122.795 30.4972 123.008 30.6392C123.221 30.7765 123.467 30.8973 123.746 31.0014C124.026 31.1009 124.324 31.1861 124.641 31.2571L125.948 31.5696C126.583 31.7116 127.165 31.901 127.695 32.1378C128.226 32.3745 128.685 32.6657 129.073 33.0114C129.461 33.357 129.762 33.7642 129.975 34.233C130.193 34.7017 130.304 35.2391 130.309 35.8452C130.304 36.7353 130.077 37.5071 129.627 38.1605C129.182 38.8092 128.538 39.3134 127.695 39.6733C126.857 40.0284 125.846 40.206 124.663 40.206C123.488 40.206 122.466 40.026 121.594 39.6662C120.728 39.3063 120.051 38.7737 119.563 38.0682C119.08 37.358 118.827 36.4796 118.803 35.4332H121.779C121.812 35.9209 121.952 36.3281 122.198 36.6548C122.449 36.9768 122.783 37.2206 123.2 37.3864C123.621 37.5473 124.097 37.6278 124.627 37.6278C125.148 37.6278 125.6 37.5521 125.984 37.4006C126.372 37.2491 126.673 37.0384 126.886 36.7685C127.099 36.4986 127.205 36.1884 127.205 35.8381C127.205 35.5114 127.108 35.2367 126.914 35.0142C126.725 34.7917 126.445 34.6023 126.076 34.446C125.711 34.2898 125.264 34.1477 124.734 34.0199L123.15 33.6222C121.924 33.3239 120.955 32.8575 120.245 32.223C119.535 31.5885 119.182 30.7339 119.187 29.6591C119.182 28.7784 119.416 28.009 119.89 27.3509C120.368 26.6927 121.024 26.179 121.857 25.8097C122.691 25.4403 123.638 25.2557 124.698 25.2557C125.778 25.2557 126.72 25.4403 127.525 25.8097C128.335 26.179 128.964 26.6927 129.414 27.3509C129.864 28.009 130.096 28.7713 130.11 29.6378H127.163ZM135.453 25.4545V40H132.377V25.4545H135.453ZM137.429 27.9901V25.4545H149.375V27.9901H144.922V40H141.882V27.9901H137.429ZM150.49 25.4545H153.935L157.251 31.7188H157.393L160.71 25.4545H164.155L158.849 34.858V40H155.795V34.858L150.49 25.4545Z" fill="#F2B54C"/>
</svg>
