<svg width="100" height="41" viewBox="0 0 222 41" fill="none" xmlns="http://www.w3.org/2000/svg">
<path d="M4.53835 16L0.37642 1.45455H3.7358L6.14347 11.5611H6.2642L8.92045 1.45455H11.7969L14.446 11.5824H14.5739L16.9815 1.45455H20.3409L16.179 16H13.1818L10.4119 6.49006H10.2983L7.53551 16H4.53835ZM21.93 16V5.09091H24.9556V16H21.93ZM23.4499 3.68466C23.0001 3.68466 22.6142 3.53551 22.2923 3.23722C21.975 2.93419 21.8164 2.57197 21.8164 2.15057C21.8164 1.7339 21.975 1.37642 22.2923 1.07812C22.6142 0.775094 23.0001 0.623579 23.4499 0.623579C23.8997 0.623579 24.2833 0.775094 24.6005 1.07812C24.9225 1.37642 25.0835 1.7339 25.0835 2.15057C25.0835 2.57197 24.9225 2.93419 24.6005 3.23722C24.2833 3.53551 23.8997 3.68466 23.4499 3.68466ZM30.4048 1.45455V16H27.3793V1.45455H30.4048ZM36.8484 16.1776C36.0198 16.1776 35.2693 15.9645 34.5969 15.5384C33.9293 15.1075 33.399 14.4754 33.006 13.642C32.6178 12.804 32.4237 11.7765 32.4237 10.5597C32.4237 9.30966 32.6249 8.27036 33.0273 7.44176C33.4298 6.60843 33.9648 5.9858 34.6325 5.57386C35.3048 5.1572 36.0411 4.94886 36.8413 4.94886C37.4521 4.94886 37.9611 5.05303 38.3683 5.26136C38.7802 5.46496 39.1116 5.72064 39.3626 6.02841C39.6183 6.33144 39.8124 6.62973 39.945 6.9233H40.0373V1.45455H43.0558V16H40.0728V14.2528H39.945C39.8029 14.5559 39.6017 14.8565 39.3413 15.1548C39.0856 15.4484 38.7518 15.6922 38.3398 15.8864C37.9326 16.0805 37.4355 16.1776 36.8484 16.1776ZM37.8072 13.7699C38.2949 13.7699 38.7068 13.6373 39.043 13.3722C39.3839 13.1023 39.6443 12.7259 39.8242 12.2429C40.0089 11.7599 40.1012 11.1941 40.1012 10.5455C40.1012 9.89678 40.0112 9.33333 39.8313 8.85511C39.6514 8.37689 39.391 8.00758 39.0501 7.74716C38.7092 7.48674 38.2949 7.35653 37.8072 7.35653C37.31 7.35653 36.891 7.49148 36.5501 7.76136C36.2092 8.03125 35.9511 8.4053 35.7759 8.88352C35.6007 9.36174 35.5131 9.91572 35.5131 10.5455C35.5131 11.1799 35.6007 11.741 35.7759 12.2287C35.9558 12.7116 36.2139 13.0904 36.5501 13.3651C36.891 13.6349 37.31 13.7699 37.8072 13.7699ZM50.4723 16.2131C49.3549 16.2131 48.3937 15.9763 47.5888 15.5028C46.7886 15.0246 46.1731 14.3617 45.7422 13.5142C45.3161 12.6667 45.103 11.6913 45.103 10.5881C45.103 9.47064 45.3184 8.49053 45.7493 7.64773C46.1849 6.80019 46.8028 6.13968 47.603 5.66619C48.4032 5.18797 49.3549 4.94886 50.4581 4.94886C51.4098 4.94886 52.2431 5.12169 52.9581 5.46733C53.6731 5.81297 54.2389 6.2983 54.6555 6.9233C55.0722 7.5483 55.3018 8.2822 55.3445 9.125H52.4893C52.4089 8.58049 52.1958 8.14252 51.8501 7.81108C51.5092 7.47491 51.0618 7.30682 50.5078 7.30682C50.0391 7.30682 49.6295 7.43466 49.2791 7.69034C48.9335 7.94129 48.6636 8.30824 48.4695 8.79119C48.2753 9.27415 48.1783 9.8589 48.1783 10.5455C48.1783 11.2415 48.273 11.8333 48.4624 12.321C48.6565 12.8087 48.9287 13.1804 49.2791 13.4361C49.6295 13.6918 50.0391 13.8196 50.5078 13.8196C50.8535 13.8196 51.1636 13.7486 51.4382 13.6065C51.7176 13.4645 51.9472 13.2585 52.1271 12.9886C52.3118 12.714 52.4325 12.3849 52.4893 12.0014H55.3445C55.2971 12.8348 55.0698 13.5687 54.6626 14.2031C54.2602 14.8329 53.7038 15.3253 52.9936 15.6804C52.2834 16.0355 51.4429 16.2131 50.4723 16.2131ZM60.3924 16.206C59.6964 16.206 59.0761 16.0852 58.5316 15.8438C57.9871 15.5975 57.5562 15.2353 57.239 14.7571C56.9265 14.2741 56.7702 13.6728 56.7702 12.9531C56.7702 12.3471 56.8815 11.8381 57.104 11.4261C57.3266 11.0142 57.6296 10.6828 58.0131 10.4318C58.3967 10.1809 58.8323 9.99148 59.32 9.86364C59.8124 9.7358 60.3285 9.64583 60.8683 9.59375C61.5027 9.52746 62.0141 9.46591 62.4023 9.40909C62.7906 9.34754 63.0723 9.25758 63.2475 9.1392C63.4227 9.02083 63.5103 8.84564 63.5103 8.61364V8.57102C63.5103 8.12121 63.3683 7.7732 63.0842 7.52699C62.8048 7.28078 62.4071 7.15767 61.891 7.15767C61.3465 7.15767 60.9132 7.27841 60.5913 7.51989C60.2693 7.75663 60.0562 8.05492 59.9521 8.41477L57.1538 8.1875C57.2958 7.52462 57.5752 6.9517 57.9918 6.46875C58.4085 5.98106 58.9459 5.60701 59.604 5.34659C60.2669 5.08144 61.034 4.94886 61.9052 4.94886C62.5112 4.94886 63.0913 5.01989 63.6452 5.16193C64.204 5.30398 64.6987 5.52415 65.1296 5.82244C65.5652 6.12074 65.9085 6.50426 66.1594 6.97301C66.4104 7.43703 66.5359 7.99337 66.5359 8.64205V16H63.6665V14.4872H63.5813C63.4061 14.8281 63.1718 15.1288 62.8782 15.3892C62.5846 15.6449 62.2319 15.8461 61.82 15.9929C61.408 16.1349 60.9322 16.206 60.3924 16.206ZM61.2589 14.1179C61.704 14.1179 62.0969 14.0303 62.4379 13.8551C62.7788 13.6752 63.0463 13.4337 63.2404 13.1307C63.4345 12.8277 63.5316 12.4844 63.5316 12.1009V10.9432C63.4369 11.0047 63.3067 11.0616 63.141 11.1136C62.98 11.161 62.7977 11.206 62.5941 11.2486C62.3905 11.2865 62.1869 11.322 61.9833 11.3551C61.7797 11.3835 61.5951 11.4096 61.4293 11.4332C61.0742 11.4853 60.7641 11.5682 60.4989 11.6818C60.2338 11.7955 60.0278 11.9493 59.881 12.1435C59.7343 12.3329 59.6609 12.5696 59.6609 12.8537C59.6609 13.2656 59.81 13.5805 60.1083 13.7983C60.4113 14.0114 60.7949 14.1179 61.2589 14.1179ZM74.6857 5.09091V7.36364H68.1161V5.09091H74.6857ZM69.6076 2.47727H72.6332V12.6477C72.6332 12.9271 72.6758 13.1449 72.761 13.3011C72.8462 13.4527 72.9646 13.5592 73.1161 13.6207C73.2724 13.6823 73.4523 13.7131 73.6559 13.7131C73.7979 13.7131 73.94 13.7012 74.082 13.6776C74.2241 13.6491 74.333 13.6278 74.4087 13.6136L74.8846 15.8651C74.7331 15.9124 74.52 15.9669 74.2454 16.0284C73.9708 16.0947 73.637 16.1349 73.244 16.1491C72.5148 16.1776 71.8756 16.0805 71.3263 15.858C70.7818 15.6354 70.3581 15.2898 70.055 14.821C69.752 14.3523 69.6029 13.7604 69.6076 13.0455V2.47727ZM85.5966 8.2017L82.8267 8.37216C82.7794 8.13542 82.6776 7.92235 82.5213 7.73295C82.3651 7.53883 82.1591 7.38494 81.9034 7.27131C81.6525 7.15294 81.3518 7.09375 81.0014 7.09375C80.5327 7.09375 80.1373 7.19318 79.8153 7.39205C79.4934 7.58617 79.3324 7.84659 79.3324 8.1733C79.3324 8.43371 79.4366 8.65388 79.6449 8.83381C79.8532 9.01373 80.2107 9.15814 80.7173 9.26705L82.6918 9.66477C83.7524 9.88258 84.5431 10.233 85.0639 10.7159C85.5848 11.1989 85.8452 11.8333 85.8452 12.6193C85.8452 13.3343 85.6345 13.9616 85.2131 14.5014C84.7964 15.0412 84.2235 15.4626 83.4943 15.7656C82.7699 16.0639 81.9342 16.2131 80.9872 16.2131C79.5431 16.2131 78.3925 15.9124 77.5355 15.3111C76.6832 14.705 76.1837 13.8812 76.0369 12.8395L79.0128 12.6832C79.1027 13.1236 79.3205 13.4598 79.6662 13.6918C80.0118 13.919 80.4545 14.0327 80.9943 14.0327C81.5246 14.0327 81.9508 13.9309 82.2727 13.7273C82.5994 13.5189 82.7652 13.2514 82.7699 12.9247C82.7652 12.6501 82.6491 12.4252 82.4219 12.25C82.1946 12.0701 81.8442 11.9328 81.3707 11.8381L79.4815 11.4616C78.4162 11.2486 77.6231 10.8793 77.1023 10.3537C76.5862 9.82812 76.3281 9.15814 76.3281 8.34375C76.3281 7.64299 76.5175 7.0393 76.8963 6.53267C77.2798 6.02604 77.8172 5.63542 78.5085 5.3608C79.2045 5.08617 80.0189 4.94886 80.9517 4.94886C82.3295 4.94886 83.4138 5.24006 84.2045 5.82244C85 6.40483 85.464 7.19792 85.5966 8.2017ZM92.4361 16V1.45455H102.067V3.99006H95.5114V7.45597H101.428V9.99148H95.5114V16H92.4361ZM108.207 16.2131C107.103 16.2131 106.149 15.9787 105.344 15.5099C104.544 15.0365 103.926 14.3783 103.491 13.5355C103.055 12.688 102.837 11.7055 102.837 10.5881C102.837 9.46117 103.055 8.47633 103.491 7.63352C103.926 6.78598 104.544 6.12784 105.344 5.65909C106.149 5.18561 107.103 4.94886 108.207 4.94886C109.31 4.94886 110.262 5.18561 111.062 5.65909C111.867 6.12784 112.487 6.78598 112.923 7.63352C113.358 8.47633 113.576 9.46117 113.576 10.5881C113.576 11.7055 113.358 12.688 112.923 13.5355C112.487 14.3783 111.867 15.0365 111.062 15.5099C110.262 15.9787 109.31 16.2131 108.207 16.2131ZM108.221 13.8693C108.723 13.8693 109.142 13.7273 109.478 13.4432C109.814 13.1544 110.067 12.7614 110.238 12.2642C110.413 11.767 110.501 11.2012 110.501 10.5668C110.501 9.93229 110.413 9.36648 110.238 8.86932C110.067 8.37216 109.814 7.97917 109.478 7.69034C109.142 7.40151 108.723 7.2571 108.221 7.2571C107.714 7.2571 107.288 7.40151 106.942 7.69034C106.602 7.97917 106.344 8.37216 106.168 8.86932C105.998 9.36648 105.913 9.93229 105.913 10.5668C105.913 11.2012 105.998 11.767 106.168 12.2642C106.344 12.7614 106.602 13.1544 106.942 13.4432C107.288 13.7273 107.714 13.8693 108.221 13.8693ZM120.472 16.2131C119.369 16.2131 118.415 15.9787 117.61 15.5099C116.81 15.0365 116.192 14.3783 115.756 13.5355C115.321 12.688 115.103 11.7055 115.103 10.5881C115.103 9.46117 115.321 8.47633 115.756 7.63352C116.192 6.78598 116.81 6.12784 117.61 5.65909C118.415 5.18561 119.369 4.94886 120.472 4.94886C121.576 4.94886 122.527 5.18561 123.327 5.65909C124.132 6.12784 124.753 6.78598 125.188 7.63352C125.624 8.47633 125.842 9.46117 125.842 10.5881C125.842 11.7055 125.624 12.688 125.188 13.5355C124.753 14.3783 124.132 15.0365 123.327 15.5099C122.527 15.9787 121.576 16.2131 120.472 16.2131ZM120.487 13.8693C120.988 13.8693 121.407 13.7273 121.744 13.4432C122.08 13.1544 122.333 12.7614 122.504 12.2642C122.679 11.767 122.766 11.2012 122.766 10.5668C122.766 9.93229 122.679 9.36648 122.504 8.86932C122.333 8.37216 122.08 7.97917 121.744 7.69034C121.407 7.40151 120.988 7.2571 120.487 7.2571C119.98 7.2571 119.554 7.40151 119.208 7.69034C118.867 7.97917 118.609 8.37216 118.434 8.86932C118.263 9.36648 118.178 9.93229 118.178 10.5668C118.178 11.2012 118.263 11.767 118.434 12.2642C118.609 12.7614 118.867 13.1544 119.208 13.4432C119.554 13.7273 119.98 13.8693 120.487 13.8693ZM131.829 16.1776C131 16.1776 130.25 15.9645 129.577 15.5384C128.91 15.1075 128.379 14.4754 127.987 13.642C127.598 12.804 127.404 11.7765 127.404 10.5597C127.404 9.30966 127.605 8.27036 128.008 7.44176C128.41 6.60843 128.945 5.9858 129.613 5.57386C130.285 5.1572 131.022 4.94886 131.822 4.94886C132.433 4.94886 132.942 5.05303 133.349 5.26136C133.761 5.46496 134.092 5.72064 134.343 6.02841C134.599 6.33144 134.793 6.62973 134.925 6.9233H135.018V1.45455H138.036V16H135.053V14.2528H134.925C134.783 14.5559 134.582 14.8565 134.322 15.1548C134.066 15.4484 133.732 15.6922 133.32 15.8864C132.913 16.0805 132.416 16.1776 131.829 16.1776ZM132.788 13.7699C133.275 13.7699 133.687 13.6373 134.023 13.3722C134.364 13.1023 134.625 12.7259 134.805 12.2429C134.989 11.7599 135.082 11.1941 135.082 10.5455C135.082 9.89678 134.992 9.33333 134.812 8.85511C134.632 8.37689 134.371 8.00758 134.031 7.74716C133.69 7.48674 133.275 7.35653 132.788 7.35653C132.29 7.35653 131.871 7.49148 131.531 7.76136C131.19 8.03125 130.932 8.4053 130.756 8.88352C130.581 9.36174 130.494 9.91572 130.494 10.5455C130.494 11.1799 130.581 11.741 130.756 12.2287C130.936 12.7116 131.194 13.0904 131.531 13.3651C131.871 13.6349 132.29 13.7699 132.788 13.7699ZM145.21 16V1.45455H155.011V3.99006H148.285V7.45597H154.506V9.99148H148.285V13.4645H155.039V16H145.21ZM159.927 5.09091L161.93 8.90483L163.983 5.09091H167.086L163.926 10.5455L167.172 16H164.082L161.93 12.2287L159.814 16H156.689L159.927 10.5455L156.802 5.09091H159.927ZM168.883 20.0909V5.09091H171.866V6.9233H172.001C172.134 6.62973 172.325 6.33144 172.576 6.02841C172.832 5.72064 173.163 5.46496 173.571 5.26136C173.983 5.05303 174.494 4.94886 175.105 4.94886C175.9 4.94886 176.634 5.1572 177.306 5.57386C177.979 5.9858 178.516 6.60843 178.919 7.44176C179.321 8.27036 179.522 9.30966 179.522 10.5597C179.522 11.7765 179.326 12.804 178.933 13.642C178.545 14.4754 178.014 15.1075 177.342 15.5384C176.674 15.9645 175.926 16.1776 175.098 16.1776C174.511 16.1776 174.011 16.0805 173.599 15.8864C173.192 15.6922 172.858 15.4484 172.598 15.1548C172.337 14.8565 172.138 14.5559 172.001 14.2528H171.909V20.0909H168.883ZM171.845 10.5455C171.845 11.1941 171.935 11.7599 172.115 12.2429C172.295 12.7259 172.555 13.1023 172.896 13.3722C173.237 13.6373 173.651 13.7699 174.139 13.7699C174.631 13.7699 175.048 13.6349 175.389 13.3651C175.73 13.0904 175.988 12.7116 176.163 12.2287C176.343 11.741 176.433 11.1799 176.433 10.5455C176.433 9.91572 176.345 9.36174 176.17 8.88352C175.995 8.4053 175.737 8.03125 175.396 7.76136C175.055 7.49148 174.636 7.35653 174.139 7.35653C173.646 7.35653 173.23 7.48674 172.889 7.74716C172.553 8.00758 172.295 8.37689 172.115 8.85511C171.935 9.33333 171.845 9.89678 171.845 10.5455ZM181.539 16V5.09091H184.473V6.99432H184.586C184.785 6.31723 185.119 5.80587 185.588 5.46023C186.056 5.10985 186.596 4.93466 187.207 4.93466C187.359 4.93466 187.522 4.94413 187.697 4.96307C187.872 4.98201 188.026 5.00805 188.159 5.04119V7.72585C188.017 7.68324 187.82 7.64536 187.569 7.61222C187.318 7.57907 187.089 7.5625 186.88 7.5625C186.435 7.5625 186.038 7.65956 185.687 7.85369C185.342 8.04309 185.067 8.30824 184.863 8.64915C184.664 8.99006 184.565 9.38305 184.565 9.82812V16H181.539ZM194.187 16.2131C193.065 16.2131 192.099 15.9858 191.289 15.5312C190.484 15.072 189.864 14.4233 189.428 13.5852C188.993 12.7424 188.775 11.7457 188.775 10.5952C188.775 9.47301 188.993 8.48816 189.428 7.64062C189.864 6.79309 190.477 6.13258 191.268 5.65909C192.063 5.18561 192.996 4.94886 194.066 4.94886C194.786 4.94886 195.456 5.06487 196.076 5.29688C196.701 5.52415 197.246 5.86742 197.71 6.3267C198.178 6.78598 198.543 7.36364 198.803 8.05966C199.064 8.75095 199.194 9.56061 199.194 10.4886V11.3196H189.982V9.4446H196.346C196.346 9.009 196.251 8.62311 196.062 8.28693C195.872 7.95076 195.61 7.68797 195.273 7.49858C194.942 7.30445 194.556 7.20739 194.116 7.20739C193.656 7.20739 193.249 7.31392 192.894 7.52699C192.544 7.73532 192.269 8.01705 192.07 8.37216C191.871 8.72254 191.77 9.11316 191.765 9.54403V11.3267C191.765 11.8665 191.864 12.3329 192.063 12.7259C192.267 13.1188 192.553 13.4219 192.923 13.6349C193.292 13.848 193.73 13.9545 194.237 13.9545C194.573 13.9545 194.88 13.9072 195.16 13.8125C195.439 13.7178 195.678 13.5758 195.877 13.3864C196.076 13.197 196.228 12.965 196.332 12.6903L199.13 12.875C198.988 13.5473 198.697 14.1345 198.256 14.6364C197.821 15.1335 197.257 15.5218 196.566 15.8011C195.879 16.0758 195.086 16.2131 194.187 16.2131ZM210.245 8.2017L207.475 8.37216C207.428 8.13542 207.326 7.92235 207.17 7.73295C207.013 7.53883 206.808 7.38494 206.552 7.27131C206.301 7.15294 206 7.09375 205.65 7.09375C205.181 7.09375 204.786 7.19318 204.464 7.39205C204.142 7.58617 203.981 7.84659 203.981 8.1733C203.981 8.43371 204.085 8.65388 204.293 8.83381C204.502 9.01373 204.859 9.15814 205.366 9.26705L207.34 9.66477C208.401 9.88258 209.192 10.233 209.712 10.7159C210.233 11.1989 210.494 11.8333 210.494 12.6193C210.494 13.3343 210.283 13.9616 209.862 14.5014C209.445 15.0412 208.872 15.4626 208.143 15.7656C207.418 16.0639 206.583 16.2131 205.636 16.2131C204.192 16.2131 203.041 15.9124 202.184 15.3111C201.332 14.705 200.832 13.8812 200.685 12.8395L203.661 12.6832C203.751 13.1236 203.969 13.4598 204.315 13.6918C204.66 13.919 205.103 14.0327 205.643 14.0327C206.173 14.0327 206.599 13.9309 206.921 13.7273C207.248 13.5189 207.414 13.2514 207.418 12.9247C207.414 12.6501 207.298 12.4252 207.07 12.25C206.843 12.0701 206.493 11.9328 206.019 11.8381L204.13 11.4616C203.065 11.2486 202.272 10.8793 201.751 10.3537C201.235 9.82812 200.977 9.15814 200.977 8.34375C200.977 7.64299 201.166 7.0393 201.545 6.53267C201.928 6.02604 202.466 5.63542 203.157 5.3608C203.853 5.08617 204.667 4.94886 205.6 4.94886C206.978 4.94886 208.062 5.24006 208.853 5.82244C209.648 6.40483 210.112 7.19792 210.245 8.2017ZM221.475 8.2017L218.706 8.37216C218.658 8.13542 218.556 7.92235 218.4 7.73295C218.244 7.53883 218.038 7.38494 217.782 7.27131C217.531 7.15294 217.231 7.09375 216.88 7.09375C216.412 7.09375 216.016 7.19318 215.694 7.39205C215.372 7.58617 215.211 7.84659 215.211 8.1733C215.211 8.43371 215.315 8.65388 215.524 8.83381C215.732 9.01373 216.09 9.15814 216.596 9.26705L218.571 9.66477C219.631 9.88258 220.422 10.233 220.943 10.7159C221.464 11.1989 221.724 11.8333 221.724 12.6193C221.724 13.3343 221.513 13.9616 221.092 14.5014C220.675 15.0412 220.102 15.4626 219.373 15.7656C218.649 16.0639 217.813 16.2131 216.866 16.2131C215.422 16.2131 214.271 15.9124 213.414 15.3111C212.562 14.705 212.063 13.8812 211.916 12.8395L214.892 12.6832C214.982 13.1236 215.199 13.4598 215.545 13.6918C215.891 13.919 216.333 14.0327 216.873 14.0327C217.404 14.0327 217.83 13.9309 218.152 13.7273C218.478 13.5189 218.644 13.2514 218.649 12.9247C218.644 12.6501 218.528 12.4252 218.301 12.25C218.074 12.0701 217.723 11.9328 217.25 11.8381L215.36 11.4616C214.295 11.2486 213.502 10.8793 212.981 10.3537C212.465 9.82812 212.207 9.15814 212.207 8.34375C212.207 7.64299 212.396 7.0393 212.775 6.53267C213.159 6.02604 213.696 5.63542 214.387 5.3608C215.083 5.08617 215.898 4.94886 216.831 4.94886C218.208 4.94886 219.293 5.24006 220.083 5.82244C220.879 6.40483 221.343 7.19792 221.475 8.2017Z" fill="#9B1410"/>
<path d="M14.098 30.5469H10.9872C10.9304 30.1444 10.8144 29.7869 10.6392 29.4744C10.464 29.1572 10.2391 28.8873 9.96449 28.6648C9.68987 28.4422 9.37263 28.2718 9.01278 28.1534C8.65767 28.035 8.27178 27.9759 7.85511 27.9759C7.10227 27.9759 6.4465 28.1629 5.88778 28.5369C5.32907 28.9062 4.89583 29.446 4.58807 30.1562C4.2803 30.8617 4.12642 31.7187 4.12642 32.7273C4.12642 33.7642 4.2803 34.6354 4.58807 35.3409C4.90057 36.0464 5.33617 36.5791 5.89489 36.9389C6.4536 37.2988 7.09991 37.4787 7.83381 37.4787C8.24574 37.4787 8.62689 37.4242 8.97727 37.3153C9.33239 37.2064 9.64725 37.0478 9.92188 36.8395C10.1965 36.6264 10.4238 36.3684 10.6037 36.0653C10.7884 35.7623 10.9162 35.4167 10.9872 35.0284L14.098 35.0426C14.0175 35.7102 13.8163 36.3542 13.4943 36.9744C13.1771 37.59 12.7486 38.1416 12.2088 38.6293C11.6738 39.1122 11.0346 39.4957 10.2912 39.7798C9.55256 40.0592 8.71686 40.1989 7.78409 40.1989C6.48674 40.1989 5.3267 39.9053 4.30398 39.3182C3.28598 38.7311 2.48106 37.8812 1.8892 36.7685C1.30208 35.6558 1.00852 34.3087 1.00852 32.7273C1.00852 31.1411 1.30682 29.7917 1.90341 28.679C2.5 27.5663 3.30966 26.7187 4.33239 26.1364C5.35511 25.5492 6.50568 25.2557 7.78409 25.2557C8.62689 25.2557 9.40814 25.3741 10.1278 25.6108C10.8523 25.8475 11.4938 26.1932 12.0526 26.6477C12.6113 27.0975 13.0658 27.6491 13.4162 28.3026C13.7713 28.956 13.9986 29.7041 14.098 30.5469ZM19.3786 25.4545V40H16.3033V25.4545H19.3786ZM21.3548 27.9901V25.4545H33.3008V27.9901H28.8477V40H25.8079V27.9901H21.3548ZM41.4027 31.527V33.9276H34.7692V31.527H41.4027ZM53.022 25.4545H56.0973V34.9006C56.0973 35.9612 55.844 36.8892 55.3374 37.6847C54.8355 38.4801 54.1323 39.1004 53.228 39.5455C52.3236 39.9858 51.2701 40.206 50.0675 40.206C48.8601 40.206 47.8042 39.9858 46.8999 39.5455C45.9955 39.1004 45.2924 38.4801 44.7905 37.6847C44.2886 36.8892 44.0376 35.9612 44.0376 34.9006V25.4545H47.1129V34.6378C47.1129 35.1918 47.2337 35.6842 47.4751 36.1151C47.7214 36.5459 48.067 36.8845 48.5121 37.1307C48.9571 37.3769 49.4756 37.5 50.0675 37.5C50.6641 37.5 51.1825 37.3769 51.6229 37.1307C52.0679 36.8845 52.4112 36.5459 52.6527 36.1151C52.8989 35.6842 53.022 35.1918 53.022 34.6378V25.4545ZM70.7937 25.4545V40H68.1374L61.8093 30.8452H61.7028V40H58.6275V25.4545H61.3263L67.6048 34.6023H67.7326V25.4545H70.7937ZM76.4098 25.4545V40H73.3345V25.4545H76.4098ZM81.5678 25.4545L85.0835 36.5057H85.2184L88.7411 25.4545H92.1502L87.136 40H83.1729L78.1516 25.4545H81.5678ZM93.9009 40V25.4545H103.702V27.9901H96.9762V31.456H103.198V33.9915H96.9762V37.4645H103.73V40H93.9009ZM106.147 40V25.4545H111.886C112.984 25.4545 113.922 25.651 114.698 26.044C115.479 26.4323 116.074 26.9839 116.481 27.6989C116.893 28.4091 117.099 29.2448 117.099 30.206C117.099 31.1719 116.89 32.0028 116.474 32.6989C116.057 33.3902 115.453 33.9205 114.663 34.2898C113.877 34.6591 112.925 34.8438 111.808 34.8438H107.965V32.3722H111.31C111.897 32.3722 112.385 32.2917 112.773 32.1307C113.162 31.9697 113.451 31.7282 113.64 31.4062C113.834 31.0843 113.931 30.6842 113.931 30.206C113.931 29.723 113.834 29.3158 113.64 28.9844C113.451 28.6529 113.159 28.402 112.766 28.2315C112.378 28.0563 111.888 27.9688 111.296 27.9688H109.222V40H106.147ZM114.002 33.3807L117.617 40H114.222L110.685 33.3807H114.002ZM127.163 29.6378C127.106 29.0649 126.862 28.6198 126.431 28.3026C126 27.9853 125.415 27.8267 124.677 27.8267C124.175 27.8267 123.751 27.8977 123.406 28.0398C123.06 28.1771 122.795 28.3688 122.61 28.6151C122.43 28.8613 122.34 29.1406 122.34 29.4531C122.331 29.7135 122.385 29.9408 122.504 30.1349C122.627 30.3291 122.795 30.4972 123.008 30.6392C123.221 30.7765 123.467 30.8973 123.746 31.0014C124.026 31.1009 124.324 31.1861 124.641 31.2571L125.948 31.5696C126.583 31.7116 127.165 31.901 127.695 32.1378C128.226 32.3745 128.685 32.6657 129.073 33.0114C129.461 33.357 129.762 33.7642 129.975 34.233C130.193 34.7017 130.304 35.2391 130.309 35.8452C130.304 36.7353 130.077 37.5071 129.627 38.1605C129.182 38.8092 128.538 39.3134 127.695 39.6733C126.857 40.0284 125.846 40.206 124.663 40.206C123.488 40.206 122.466 40.026 121.594 39.6662C120.728 39.3063 120.051 38.7737 119.563 38.0682C119.08 37.358 118.827 36.4796 118.803 35.4332H121.779C121.812 35.9209 121.952 36.3281 122.198 36.6548C122.449 36.9768 122.783 37.2206 123.2 37.3864C123.621 37.5473 124.097 37.6278 124.627 37.6278C125.148 37.6278 125.6 37.5521 125.984 37.4006C126.372 37.2491 126.673 37.0384 126.886 36.7685C127.099 36.4986 127.205 36.1884 127.205 35.8381C127.205 35.5114 127.108 35.2367 126.914 35.0142C126.725 34.7917 126.445 34.6023 126.076 34.446C125.711 34.2898 125.264 34.1477 124.734 34.0199L123.15 33.6222C121.924 33.3239 120.955 32.8575 120.245 32.223C119.535 31.5885 119.182 30.7339 119.187 29.6591C119.182 28.7784 119.416 28.009 119.89 27.3509C120.368 26.6927 121.024 26.179 121.857 25.8097C122.691 25.4403 123.638 25.2557 124.698 25.2557C125.778 25.2557 126.72 25.4403 127.525 25.8097C128.335 26.179 128.964 26.6927 129.414 27.3509C129.864 28.009 130.096 28.7713 130.11 29.6378H127.163ZM135.453 25.4545V40H132.377V25.4545H135.453ZM137.429 27.9901V25.4545H149.375V27.9901H144.922V40H141.882V27.9901H137.429ZM150.49 25.4545H153.935L157.251 31.7188H157.393L160.71 25.4545H164.155L158.849 34.858V40H155.795V34.858L150.49 25.4545Z" fill="#F2B54C"/>
</svg>
