<svg width="212" height="41" viewBox="0 0 212 41" fill="none" xmlns="http://www.w3.org/2000/svg">
<path d="M5.05988 16L0.897949 1.45456H4.25732L6.665 11.5611H6.78573L9.44198 1.45456H12.3184L14.9676 11.5824H15.0954L17.5031 1.45456H20.8624L16.7005 16H13.7033L10.9335 6.49007H10.8198L8.05704 16H5.05988Z" fill="#9B1410"/>
<path d="M22.4516 16V5.09093H25.4771V16H22.4516ZM23.9715 3.68468C23.5216 3.68468 23.1358 3.53553 22.8138 3.23723C22.4966 2.9342 22.3379 2.57199 22.3379 2.15058C22.3379 1.73392 22.4966 1.37644 22.8138 1.07814C23.1358 0.775112 23.5216 0.623596 23.9715 0.623596C24.4213 0.623596 24.8048 0.775112 25.122 1.07814C25.444 1.37644 25.605 1.73392 25.605 2.15058C25.605 2.57199 25.444 2.9342 25.122 3.23723C24.8048 3.53553 24.4213 3.68468 23.9715 3.68468Z" fill="#9B1410"/>
<path d="M30.9264 1.45456V16H27.9008V1.45456H30.9264Z" fill="#9B1410"/>
<path d="M37.3699 16.1776C36.5413 16.1776 35.7908 15.9645 35.1185 15.5384C34.4509 15.1075 33.9206 14.4754 33.5276 13.6421C33.1393 12.804 32.9452 11.7765 32.9452 10.5597C32.9452 9.30968 33.1464 8.27038 33.5489 7.44178C33.9513 6.60845 34.4864 5.98581 35.154 5.57388C35.8263 5.15721 36.5626 4.94888 37.3628 4.94888C37.9736 4.94888 38.4826 5.05305 38.8898 5.26138C39.3017 5.46498 39.6332 5.72066 39.8841 6.02843C40.1398 6.33146 40.3339 6.62975 40.4665 6.92331H40.5588V1.45456H43.5773V16H40.5943V14.2529H40.4665C40.3244 14.5559 40.1232 14.8566 39.8628 15.1548C39.6071 15.4484 39.2733 15.6923 38.8614 15.8864C38.4542 16.0805 37.957 16.1776 37.3699 16.1776ZM38.3287 13.7699C38.8164 13.7699 39.2283 13.6373 39.5645 13.3722C39.9054 13.1023 40.1658 12.7259 40.3457 12.2429C40.5304 11.76 40.6227 11.1941 40.6227 10.5455C40.6227 9.8968 40.5328 9.33335 40.3529 8.85513C40.1729 8.37691 39.9125 8.00759 39.5716 7.74718C39.2307 7.48676 38.8164 7.35655 38.3287 7.35655C37.8315 7.35655 37.4125 7.49149 37.0716 7.76138C36.7307 8.03127 36.4726 8.40532 36.2975 8.88354C36.1223 9.36176 36.0347 9.91574 36.0347 10.5455C36.0347 11.1799 36.1223 11.741 36.2975 12.2287C36.4774 12.7117 36.7354 13.0905 37.0716 13.3651C37.4125 13.635 37.8315 13.7699 38.3287 13.7699Z" fill="#9B1410"/>
<path d="M50.9938 16.2131C49.8764 16.2131 48.9152 15.9763 48.1103 15.5029C47.3101 15.0246 46.6946 14.3618 46.2637 13.5142C45.8376 12.6667 45.6245 11.6913 45.6245 10.5881C45.6245 9.47066 45.8399 8.49055 46.2708 7.64774C46.7064 6.80021 47.3243 6.1397 48.1245 5.66621C48.9247 5.18799 49.8764 4.94888 50.9796 4.94888C51.9313 4.94888 52.7647 5.1217 53.4796 5.46735C54.1946 5.81299 54.7604 6.29831 55.1771 6.92331C55.5937 7.54831 55.8234 8.28221 55.866 9.12502H53.0109C52.9304 8.58051 52.7173 8.14254 52.3717 7.8111C52.0308 7.47492 51.5833 7.30684 51.0293 7.30684C50.5606 7.30684 50.151 7.43468 49.8006 7.69036C49.455 7.94131 49.1851 8.30826 48.991 8.79121C48.7969 9.27416 48.6998 9.85892 48.6998 10.5455C48.6998 11.2415 48.7945 11.8334 48.9839 12.321C49.178 12.8087 49.4503 13.1804 49.8006 13.4361C50.151 13.6918 50.5606 13.8196 51.0293 13.8196C51.375 13.8196 51.6851 13.7486 51.9597 13.6066C52.2391 13.4645 52.4687 13.2585 52.6487 12.9887C52.8333 12.714 52.9541 12.385 53.0109 12.0014H55.866C55.8186 12.8348 55.5914 13.5687 55.1842 14.2031C54.7817 14.8329 54.2254 15.3253 53.5151 15.6804C52.8049 16.0355 51.9645 16.2131 50.9938 16.2131Z" fill="#9B1410"/>
<path d="M60.9139 16.206C60.2179 16.206 59.5976 16.0852 59.0531 15.8438C58.5086 15.5976 58.0778 15.2353 57.7605 14.7571C57.448 14.2742 57.2918 13.6728 57.2918 12.9531C57.2918 12.3471 57.403 11.8381 57.6256 11.4262C57.8481 11.0142 58.1511 10.6828 58.5347 10.4318C58.9182 10.1809 59.3538 9.99149 59.8415 9.86365C60.3339 9.73581 60.85 9.64585 61.3898 9.59377C62.0243 9.52748 62.5356 9.46593 62.9239 9.40911C63.3121 9.34756 63.5939 9.25759 63.769 9.13922C63.9442 9.02085 64.0318 8.84566 64.0318 8.61365V8.57104C64.0318 8.12123 63.8898 7.77322 63.6057 7.52701C63.3263 7.28079 62.9286 7.15769 62.4125 7.15769C61.868 7.15769 61.4348 7.27843 61.1128 7.5199C60.7908 7.75665 60.5778 8.05494 60.4736 8.41479L57.6753 8.18752C57.8173 7.52464 58.0967 6.95172 58.5134 6.46877C58.93 5.98108 59.4674 5.60702 60.1256 5.34661C60.7885 5.08146 61.5555 4.94888 62.4267 4.94888C63.0328 4.94888 63.6128 5.0199 64.1668 5.16195C64.7255 5.30399 65.2203 5.52417 65.6511 5.82246C66.0868 6.12076 66.43 6.50428 66.681 6.97303C66.9319 7.43704 67.0574 7.99339 67.0574 8.64206V16H64.1881V14.4872H64.1029C63.9277 14.8281 63.6933 15.1288 63.3997 15.3892C63.1062 15.6449 62.7534 15.8461 62.3415 15.9929C61.9296 16.135 61.4537 16.206 60.9139 16.206ZM61.7804 14.1179C62.2255 14.1179 62.6185 14.0303 62.9594 13.8551C63.3003 13.6752 63.5678 13.4337 63.7619 13.1307C63.9561 12.8277 64.0531 12.4844 64.0531 12.1009V10.9432C63.9584 11.0048 63.8282 11.0616 63.6625 11.1137C63.5015 11.161 63.3192 11.206 63.1156 11.2486C62.912 11.2865 62.7084 11.322 62.5048 11.3551C62.3012 11.3835 62.1166 11.4096 61.9509 11.4333C61.5957 11.4853 61.2856 11.5682 61.0205 11.6818C60.7553 11.7955 60.5493 11.9494 60.4026 12.1435C60.2558 12.3329 60.1824 12.5696 60.1824 12.8537C60.1824 13.2656 60.3315 13.5805 60.6298 13.7983C60.9329 14.0114 61.3164 14.1179 61.7804 14.1179Z" fill="#9B1410"/>
<path d="M75.2073 5.09093V7.36365H68.6376V5.09093H75.2073ZM70.1291 2.47729H73.1547V12.6477C73.1547 12.9271 73.1973 13.1449 73.2825 13.3012C73.3678 13.4527 73.4861 13.5592 73.6376 13.6208C73.7939 13.6823 73.9738 13.7131 74.1774 13.7131C74.3195 13.7131 74.4615 13.7012 74.6036 13.6776C74.7456 13.6492 74.8545 13.6279 74.9303 13.6137L75.4061 15.8651C75.2546 15.9124 75.0415 15.9669 74.7669 16.0284C74.4923 16.0947 74.1585 16.135 73.7655 16.1492C73.0363 16.1776 72.3971 16.0805 71.8479 15.858C71.3034 15.6354 70.8796 15.2898 70.5766 14.821C70.2735 14.3523 70.1244 13.7604 70.1291 13.0455V2.47729Z" fill="#9B1410"/>
<path d="M81.8639 16V1.45456H91.4945V3.99007H84.9391V7.45598H90.8553V9.99149H84.9391V16H81.8639Z" fill="#9B1410"/>
<path d="M97.6345 16.2131C96.5312 16.2131 95.5772 15.9787 94.7722 15.51C93.9721 15.0365 93.3542 14.3783 92.9185 13.5355C92.4829 12.688 92.2651 11.7055 92.2651 10.5881C92.2651 9.46119 92.4829 8.47634 92.9185 7.63354C93.3542 6.786 93.9721 6.12786 94.7722 5.65911C95.5772 5.18562 96.5312 4.94888 97.6345 4.94888C98.7377 4.94888 99.6894 5.18562 100.49 5.65911C101.294 6.12786 101.915 6.786 102.35 7.63354C102.786 8.47634 103.004 9.46119 103.004 10.5881C103.004 11.7055 102.786 12.688 102.35 13.5355C101.915 14.3783 101.294 15.0365 100.49 15.51C99.6894 15.9787 98.7377 16.2131 97.6345 16.2131ZM97.6487 13.8693C98.1506 13.8693 98.5696 13.7273 98.9058 13.4432C99.2419 13.1544 99.4952 12.7614 99.6657 12.2642C99.8409 11.7671 99.9285 11.2012 99.9285 10.5668C99.9285 9.93231 99.8409 9.36649 99.6657 8.86934C99.4952 8.37218 99.2419 7.97918 98.9058 7.69036C98.5696 7.40153 98.1506 7.25712 97.6487 7.25712C97.142 7.25712 96.7159 7.40153 96.3702 7.69036C96.0293 7.97918 95.7713 8.37218 95.5961 8.86934C95.4256 9.36649 95.3404 9.93231 95.3404 10.5668C95.3404 11.2012 95.4256 11.7671 95.5961 12.2642C95.7713 12.7614 96.0293 13.1544 96.3702 13.4432C96.7159 13.7273 97.142 13.8693 97.6487 13.8693Z" fill="#9B1410"/>
<path d="M109.9 16.2131C108.797 16.2131 107.843 15.9787 107.038 15.51C106.238 15.0365 105.62 14.3783 105.184 13.5355C104.749 12.688 104.531 11.7055 104.531 10.5881C104.531 9.46119 104.749 8.47634 105.184 7.63354C105.62 6.786 106.238 6.12786 107.038 5.65911C107.843 5.18562 108.797 4.94888 109.9 4.94888C111.003 4.94888 111.955 5.18562 112.755 5.65911C113.56 6.12786 114.18 6.786 114.616 7.63354C115.052 8.47634 115.269 9.46119 115.269 10.5881C115.269 11.7055 115.052 12.688 114.616 13.5355C114.18 14.3783 113.56 15.0365 112.755 15.51C111.955 15.9787 111.003 16.2131 109.9 16.2131ZM109.914 13.8693C110.416 13.8693 110.835 13.7273 111.171 13.4432C111.508 13.1544 111.761 12.7614 111.931 12.2642C112.107 11.7671 112.194 11.2012 112.194 10.5668C112.194 9.93231 112.107 9.36649 111.931 8.86934C111.761 8.37218 111.508 7.97918 111.171 7.69036C110.835 7.40153 110.416 7.25712 109.914 7.25712C109.408 7.25712 108.982 7.40153 108.636 7.69036C108.295 7.97918 108.037 8.37218 107.862 8.86934C107.691 9.36649 107.606 9.93231 107.606 10.5668C107.606 11.2012 107.691 11.7671 107.862 12.2642C108.037 12.7614 108.295 13.1544 108.636 13.4432C108.982 13.7273 109.408 13.8693 109.914 13.8693Z" fill="#9B1410"/>
<path d="M121.257 16.1776C120.428 16.1776 119.678 15.9645 119.005 15.5384C118.338 15.1075 117.807 14.4754 117.414 13.6421C117.026 12.804 116.832 11.7765 116.832 10.5597C116.832 9.30968 117.033 8.27038 117.436 7.44178C117.838 6.60845 118.373 5.98581 119.041 5.57388C119.713 5.15721 120.449 4.94888 121.25 4.94888C121.86 4.94888 122.369 5.05305 122.776 5.26138C123.188 5.46498 123.52 5.72066 123.771 6.02843C124.027 6.33146 124.221 6.62975 124.353 6.92331H124.446V1.45456H127.464V16H124.481V14.2529H124.353C124.211 14.5559 124.01 14.8566 123.75 15.1548C123.494 15.4484 123.16 15.6923 122.748 15.8864C122.341 16.0805 121.844 16.1776 121.257 16.1776ZM122.215 13.7699C122.703 13.7699 123.115 13.6373 123.451 13.3722C123.792 13.1023 124.053 12.7259 124.232 12.2429C124.417 11.76 124.509 11.1941 124.509 10.5455C124.509 9.8968 124.419 9.33335 124.24 8.85513C124.06 8.37691 123.799 8.00759 123.458 7.74718C123.117 7.48676 122.703 7.35655 122.215 7.35655C121.718 7.35655 121.299 7.49149 120.958 7.76138C120.617 8.03127 120.359 8.40532 120.184 8.88354C120.009 9.36176 119.921 9.91574 119.921 10.5455C119.921 11.1799 120.009 11.741 120.184 12.2287C120.364 12.7117 120.622 13.0905 120.958 13.3651C121.299 13.635 121.718 13.7699 122.215 13.7699Z" fill="#9B1410"/>
<path d="M134.637 16V1.45456H144.438V3.99007H137.713V7.45598H143.934V9.99149H137.713V13.4645H144.467V16H134.637Z" fill="#9B1410"/>
<path d="M149.355 5.09093L151.358 8.90485L153.41 5.09093H156.514L153.354 10.5455L156.599 16H153.51L151.358 12.2287L149.241 16H146.116L149.355 10.5455L146.23 5.09093H149.355Z" fill="#9B1410"/>
<path d="M158.311 20.0909V5.09093H161.294V6.92331H161.429C161.561 6.62975 161.753 6.33146 162.004 6.02843C162.26 5.72066 162.591 5.46498 162.998 5.26138C163.41 5.05305 163.922 4.94888 164.533 4.94888C165.328 4.94888 166.062 5.15721 166.734 5.57388C167.407 5.98581 167.944 6.60845 168.346 7.44178C168.749 8.27038 168.95 9.30968 168.95 10.5597C168.95 11.7765 168.754 12.804 168.361 13.6421C167.972 14.4754 167.442 15.1075 166.77 15.5384C166.102 15.9645 165.354 16.1776 164.525 16.1776C163.938 16.1776 163.439 16.0805 163.027 15.8864C162.62 15.6923 162.286 15.4484 162.025 15.1548C161.765 14.8566 161.566 14.5559 161.429 14.2529H161.337V20.0909H158.311ZM161.273 10.5455C161.273 11.1941 161.363 11.76 161.542 12.2429C161.722 12.7259 161.983 13.1023 162.324 13.3722C162.665 13.6373 163.079 13.7699 163.567 13.7699C164.059 13.7699 164.476 13.635 164.817 13.3651C165.158 13.0905 165.416 12.7117 165.591 12.2287C165.771 11.741 165.861 11.1799 165.861 10.5455C165.861 9.91574 165.773 9.36176 165.598 8.88354C165.423 8.40532 165.165 8.03127 164.824 7.76138C164.483 7.49149 164.064 7.35655 163.567 7.35655C163.074 7.35655 162.658 7.48676 162.317 7.74718C161.98 8.00759 161.722 8.37691 161.542 8.85513C161.363 9.33335 161.273 9.8968 161.273 10.5455Z" fill="#9B1410"/>
<path d="M170.967 16V5.09093H173.9V6.99434H174.014C174.213 6.31725 174.547 5.80589 175.015 5.46025C175.484 5.10987 176.024 4.93468 176.635 4.93468C176.786 4.93468 176.95 4.94415 177.125 4.96309C177.3 4.98203 177.454 5.00807 177.587 5.04121V7.72587C177.444 7.68326 177.248 7.64538 176.997 7.61223C176.746 7.57909 176.516 7.56252 176.308 7.56252C175.863 7.56252 175.465 7.65958 175.115 7.85371C174.769 8.0431 174.495 8.30826 174.291 8.64917C174.092 8.99007 173.993 9.38307 173.993 9.82814V16H170.967Z" fill="#9B1410"/>
<path d="M183.615 16.2131C182.492 16.2131 181.527 15.9858 180.717 15.5313C179.912 15.072 179.292 14.4233 178.856 13.5852C178.42 12.7424 178.203 11.7458 178.203 10.5952C178.203 9.47303 178.42 8.48818 178.856 7.64064C179.292 6.7931 179.905 6.13259 180.696 5.65911C181.491 5.18562 182.424 4.94888 183.494 4.94888C184.214 4.94888 184.884 5.06488 185.504 5.29689C186.129 5.52416 186.673 5.86744 187.137 6.32672C187.606 6.786 187.971 7.36365 188.231 8.05968C188.491 8.75096 188.622 9.56062 188.622 10.4887V11.3196H179.41V9.44462H185.774C185.774 9.00901 185.679 8.62312 185.49 8.28695C185.3 7.95077 185.037 7.68799 184.701 7.4986C184.37 7.30447 183.984 7.2074 183.544 7.2074C183.084 7.2074 182.677 7.31394 182.322 7.52701C181.972 7.73534 181.697 8.01706 181.498 8.37218C181.299 8.72255 181.197 9.11318 181.193 9.54405V11.3267C181.193 11.8665 181.292 12.3329 181.491 12.7259C181.695 13.1189 181.981 13.4219 182.35 13.635C182.72 13.848 183.158 13.9546 183.664 13.9546C184 13.9546 184.308 13.9072 184.588 13.8125C184.867 13.7178 185.106 13.5758 185.305 13.3864C185.504 13.197 185.655 12.965 185.759 12.6904L188.558 12.875C188.416 13.5474 188.125 14.1345 187.684 14.6364C187.249 15.1335 186.685 15.5218 185.994 15.8012C185.307 16.0758 184.514 16.2131 183.615 16.2131Z" fill="#9B1410"/>
<path d="M199.673 8.20172L196.903 8.37218C196.856 8.13543 196.754 7.92237 196.598 7.73297C196.441 7.53884 196.235 7.38496 195.98 7.27132C195.729 7.15295 195.428 7.09377 195.078 7.09377C194.609 7.09377 194.214 7.1932 193.892 7.39206C193.57 7.58619 193.409 7.84661 193.409 8.17331C193.409 8.43373 193.513 8.6539 193.721 8.83382C193.929 9.01375 194.287 9.15816 194.794 9.26706L196.768 9.66479C197.829 9.88259 198.619 10.233 199.14 10.7159C199.661 11.1989 199.921 11.8334 199.921 12.6193C199.921 13.3343 199.711 13.9617 199.289 14.5014C198.873 15.0412 198.3 15.4626 197.571 15.7656C196.846 16.0639 196.01 16.2131 195.063 16.2131C193.619 16.2131 192.469 15.9124 191.612 15.3111C190.759 14.705 190.26 13.8812 190.113 12.8395L193.089 12.6833C193.179 13.1236 193.397 13.4598 193.742 13.6918C194.088 13.9191 194.531 14.0327 195.071 14.0327C195.601 14.0327 196.027 13.9309 196.349 13.7273C196.676 13.519 196.841 13.2514 196.846 12.9247C196.841 12.6501 196.725 12.4252 196.498 12.25C196.271 12.0701 195.92 11.9328 195.447 11.8381L193.558 11.4617C192.492 11.2486 191.699 10.8793 191.178 10.3537C190.662 9.82814 190.404 9.15816 190.404 8.34377C190.404 7.64301 190.594 7.03932 190.973 6.53269C191.356 6.02606 191.893 5.63543 192.585 5.36081C193.281 5.08619 194.095 4.94888 195.028 4.94888C196.406 4.94888 197.49 5.24007 198.281 5.82246C199.076 6.40485 199.54 7.19793 199.673 8.20172Z" fill="#9B1410"/>
<path d="M210.903 8.20172L208.133 8.37218C208.086 8.13543 207.984 7.92237 207.828 7.73297C207.672 7.53884 207.466 7.38496 207.21 7.27132C206.959 7.15295 206.658 7.09377 206.308 7.09377C205.839 7.09377 205.444 7.1932 205.122 7.39206C204.8 7.58619 204.639 7.84661 204.639 8.17331C204.639 8.43373 204.743 8.6539 204.952 8.83382C205.16 9.01375 205.517 9.15816 206.024 9.26706L207.998 9.66479C209.059 9.88259 209.85 10.233 210.371 10.7159C210.891 11.1989 211.152 11.8334 211.152 12.6193C211.152 13.3343 210.941 13.9617 210.52 14.5014C210.103 15.0412 209.53 15.4626 208.801 15.7656C208.077 16.0639 207.241 16.2131 206.294 16.2131C204.85 16.2131 203.699 15.9124 202.842 15.3111C201.99 14.705 201.49 13.8812 201.344 12.8395L204.319 12.6833C204.409 13.1236 204.627 13.4598 204.973 13.6918C205.319 13.9191 205.761 14.0327 206.301 14.0327C206.831 14.0327 207.257 13.9309 207.579 13.7273C207.906 13.519 208.072 13.2514 208.077 12.9247C208.072 12.6501 207.956 12.4252 207.729 12.25C207.501 12.0701 207.151 11.9328 206.677 11.8381L204.788 11.4617C203.723 11.2486 202.93 10.8793 202.409 10.3537C201.893 9.82814 201.635 9.15816 201.635 8.34377C201.635 7.64301 201.824 7.03932 202.203 6.53269C202.587 6.02606 203.124 5.63543 203.815 5.36081C204.511 5.08619 205.326 4.94888 206.258 4.94888C207.636 4.94888 208.721 5.24007 209.511 5.82246C210.307 6.40485 210.771 7.19793 210.903 8.20172Z" fill="#9B1410"/>
<path d="M40.3129 30.5469H37.2021C37.1453 30.1444 37.0293 29.7869 36.8541 29.4744C36.6789 29.1572 36.454 28.8873 36.1794 28.6648C35.9048 28.4423 35.5875 28.2718 35.2277 28.1534C34.8726 28.0351 34.4867 27.9759 34.07 27.9759C33.3172 27.9759 32.6614 28.1629 32.1027 28.5369C31.544 28.9063 31.1107 29.446 30.803 30.1563C30.4952 30.8618 30.3413 31.7188 30.3413 32.7273C30.3413 33.7642 30.4952 34.6354 30.803 35.3409C31.1155 36.0464 31.5511 36.5791 32.1098 36.9389C32.6685 37.2988 33.3148 37.4787 34.0487 37.4787C34.4606 37.4787 34.8418 37.4243 35.1922 37.3154C35.5473 37.2065 35.8621 37.0478 36.1368 36.8395C36.4114 36.6264 36.6387 36.3684 36.8186 36.0654C37.0032 35.7623 37.1311 35.4167 37.2021 35.0284L40.3129 35.0426C40.2324 35.7102 40.0312 36.3542 39.7092 36.9744C39.392 37.59 38.9635 38.1416 38.4237 38.6293C37.8887 39.1122 37.2495 39.4958 36.5061 39.7798C35.7674 40.0592 34.9317 40.1989 33.999 40.1989C32.7016 40.1989 31.5416 39.9053 30.5189 39.3182C29.5009 38.7311 28.6959 37.8812 28.1041 36.7685C27.517 35.6558 27.2234 34.3087 27.2234 32.7273C27.2234 31.1411 27.5217 29.7917 28.1183 28.679C28.7149 27.5663 29.5245 26.7188 30.5473 26.1364C31.57 25.5493 32.7206 25.2557 33.999 25.2557C34.8418 25.2557 35.623 25.3741 36.3427 25.6108C37.0672 25.8476 37.7087 26.1932 38.2674 26.6477C38.8262 27.0976 39.2807 27.6492 39.6311 28.3026C39.9862 28.956 40.2135 29.7041 40.3129 30.5469Z" fill="#F2B54C"/>
<path d="M45.5934 25.4546V40H42.5182V25.4546H45.5934Z" fill="#F2B54C"/>
<path d="M47.5696 27.9901V25.4546H59.5157V27.9901H55.0625V40H52.0228V27.9901H47.5696Z" fill="#F2B54C"/>
<path d="M67.6176 31.527V33.9276H60.9841V31.527H67.6176Z" fill="#F2B54C"/>
<path d="M79.2369 25.4546H82.3122V34.9006C82.3122 35.9612 82.0589 36.8892 81.5522 37.6847C81.0504 38.4801 80.3472 39.1004 79.4429 39.5455C78.5385 39.9858 77.485 40.206 76.2824 40.206C75.075 40.206 74.0191 39.9858 73.1147 39.5455C72.2104 39.1004 71.5073 38.4801 71.0054 37.6847C70.5035 36.8892 70.2525 35.9612 70.2525 34.9006V25.4546H73.3278V34.6378C73.3278 35.1918 73.4486 35.6842 73.69 36.1151C73.9362 36.5459 74.2819 36.8845 74.727 37.1307C75.172 37.3769 75.6905 37.5 76.2824 37.5C76.8789 37.5 77.3974 37.3769 77.8378 37.1307C78.2828 36.8845 78.6261 36.5459 78.8676 36.1151C79.1138 35.6842 79.2369 35.1918 79.2369 34.6378V25.4546Z" fill="#F2B54C"/>
<path d="M97.0086 25.4546V40H94.3523L88.0242 30.8452H87.9177V40H84.8424V25.4546H87.5412L93.8196 34.6023H93.9475V25.4546H97.0086Z" fill="#F2B54C"/>
<path d="M102.625 25.4546V40H99.5494V25.4546H102.625Z" fill="#F2B54C"/>
<path d="M107.783 25.4546L111.298 36.5057H111.433L114.956 25.4546H118.365L113.351 40H109.388L104.367 25.4546H107.783Z" fill="#F2B54C"/>
<path d="M120.116 40V25.4546H129.917V27.9901H123.191V31.456H129.413V33.9915H123.191V37.4645H129.945V40H120.116Z" fill="#F2B54C"/>
<path d="M132.362 40V25.4546H138.101C139.199 25.4546 140.137 25.6511 140.913 26.0441C141.694 26.4323 142.289 26.9839 142.696 27.6989C143.108 28.4091 143.314 29.2448 143.314 30.206C143.314 31.1719 143.105 32.0029 142.689 32.6989C142.272 33.3902 141.668 33.9205 140.878 34.2898C140.092 34.6591 139.14 34.8438 138.022 34.8438H134.18V32.3722H137.525C138.112 32.3722 138.6 32.2917 138.988 32.1307C139.377 31.9697 139.665 31.7282 139.855 31.4063C140.049 31.0843 140.146 30.6842 140.146 30.206C140.146 29.723 140.049 29.3158 139.855 28.9844C139.665 28.653 139.374 28.402 138.981 28.2316C138.593 28.0564 138.103 27.9688 137.511 27.9688H135.437V40H132.362ZM140.217 33.3807L143.832 40H140.437L136.9 33.3807H140.217Z" fill="#F2B54C"/>
<path d="M153.378 29.6378C153.321 29.0649 153.077 28.6198 152.646 28.3026C152.215 27.9853 151.63 27.8267 150.892 27.8267C150.39 27.8267 149.966 27.8977 149.62 28.0398C149.275 28.1771 149.01 28.3689 148.825 28.6151C148.645 28.8613 148.555 29.1406 148.555 29.4531C148.546 29.7136 148.6 29.9408 148.718 30.135C148.842 30.3291 149.01 30.4972 149.223 30.6392C149.436 30.7765 149.682 30.8973 149.961 31.0014C150.241 31.1009 150.539 31.1861 150.856 31.2571L152.163 31.5696C152.798 31.7117 153.38 31.9011 153.91 32.1378C154.441 32.3745 154.9 32.6657 155.288 33.0114C155.676 33.357 155.977 33.7642 156.19 34.233C156.408 34.7017 156.519 35.2391 156.524 35.8452C156.519 36.7353 156.292 37.5071 155.842 38.1605C155.397 38.8092 154.753 39.3135 153.91 39.6733C153.072 40.0284 152.061 40.206 150.878 40.206C149.703 40.206 148.681 40.0261 147.809 39.6662C146.943 39.3064 146.266 38.7737 145.778 38.0682C145.295 37.358 145.042 36.4797 145.018 35.4333H147.994C148.027 35.9209 148.167 36.3281 148.413 36.6548C148.664 36.9768 148.998 37.2207 149.414 37.3864C149.836 37.5474 150.312 37.6279 150.842 37.6279C151.363 37.6279 151.815 37.5521 152.199 37.4006C152.587 37.2491 152.887 37.0384 153.101 36.7685C153.314 36.4986 153.42 36.1885 153.42 35.8381C153.42 35.5114 153.323 35.2368 153.129 35.0142C152.94 34.7917 152.66 34.6023 152.291 34.446C151.926 34.2898 151.479 34.1477 150.949 34.0199L149.365 33.6222C148.138 33.3239 147.17 32.8575 146.46 32.223C145.75 31.5886 145.397 30.7339 145.402 29.6591C145.397 28.7784 145.631 28.009 146.105 27.3509C146.583 26.6927 147.239 26.179 148.072 25.8097C148.905 25.4404 149.852 25.2557 150.913 25.2557C151.993 25.2557 152.935 25.4404 153.74 25.8097C154.549 26.179 155.179 26.6927 155.629 27.3509C156.079 28.009 156.311 28.7713 156.325 29.6378H153.378Z" fill="#F2B54C"/>
<path d="M161.668 25.4546V40H158.592V25.4546H161.668Z" fill="#F2B54C"/>
<path d="M163.644 27.9901V25.4546H175.59V27.9901H171.137V40H168.097V27.9901H163.644Z" fill="#F2B54C"/>
<path d="M176.705 25.4546H180.15L183.466 31.7188H183.608L186.925 25.4546H190.37L185.064 34.858V40H182.01V34.858L176.705 25.4546Z" fill="#F2B54C"/>
</svg>
