<svg width="109" height="110" viewBox="0 0 109 110" fill="none" xmlns="http://www.w3.org/2000/svg">
<path d="M32.7 18.1755V25.4422H101.733V39.8268L93.6719 65.4089H30.4137L21.3304 0H0V7.26667H15.0029L24.0863 72.6755H99.0011L109 40.9445V18.1755H32.7Z" fill="#840D0D"/>
<path d="M36.5568 80.0115C32.7036 80.0159 29.0096 81.5484 26.285 84.273C23.5604 86.9976 22.0278 90.6917 22.0234 94.5448C22.0234 98.3993 23.5546 102.096 26.2802 104.821C29.0057 107.547 32.7023 109.078 36.5568 109.078C40.4113 109.078 44.1079 107.547 46.8334 104.821C49.5589 102.096 51.0901 98.3993 51.0901 94.5448C51.0858 90.6916 49.5532 86.9975 46.8286 84.273C44.104 81.5484 40.4099 80.0158 36.5568 80.0115ZM36.5568 101.811C35.1196 101.811 33.7146 101.385 32.5196 100.587C31.3246 99.7883 30.3932 98.6534 29.8433 97.3256C29.2933 95.9978 29.1493 94.5367 29.4297 93.1271C29.7101 91.7175 30.4022 90.4228 31.4185 89.4065C32.4347 88.3902 33.7295 87.6981 35.1391 87.4178C36.5487 87.1374 38.0098 87.2813 39.3376 87.8313C40.6654 88.3813 41.8003 89.3127 42.5988 90.5077C43.3973 91.7027 43.8234 93.1076 43.8234 94.5448C43.8212 96.4713 43.0548 98.3183 41.6926 99.6806C40.3303 101.043 38.4833 101.809 36.5568 101.811Z" fill="#840D0D"/>
<path d="M87.4235 80.0115C83.5703 80.0159 79.8763 81.5484 77.1517 84.273C74.4271 86.9976 72.8945 90.6917 72.8901 94.5448C72.8901 98.3993 74.4213 102.096 77.1468 104.821C79.8724 107.547 83.569 109.078 87.4235 109.078C91.2779 109.078 94.9746 107.547 97.7001 104.821C100.426 102.096 101.957 98.3993 101.957 94.5448C101.952 90.6916 100.42 86.9975 97.6953 84.273C94.9707 81.5484 91.2766 80.0158 87.4235 80.0115ZM87.4235 101.811C85.9863 101.811 84.5813 101.385 83.3863 100.587C82.1913 99.7883 81.2599 98.6534 80.7099 97.3256C80.1599 95.9978 80.016 94.5367 80.2964 93.1271C80.5768 91.7175 81.2689 90.4228 82.2852 89.4065C83.3014 88.3902 84.5962 87.6981 86.0058 87.4178C87.4154 87.1374 88.8765 87.2813 90.2043 87.8313C91.5321 88.3813 92.667 89.3127 93.4655 90.5077C94.2639 91.7027 94.6901 93.1076 94.6901 94.5448C94.6878 96.4713 93.9215 98.3183 92.5592 99.6806C91.197 101.043 89.35 101.809 87.4235 101.811Z" fill="#840D0D"/>
</svg>
